<mxfile host="app.diagrams.net" agent="Mozilla/5.0 (Windows NT 10.0; Win64; x64) AppleWebKit/537.36 (KHTML, like Gecko) Chrome/140.0.0.0 Safari/537.36" version="28.2.5">
  <diagram name="Trang-1" id="sC3DUWKZ1gLXrAXfuUrC">
    <mxGraphModel dx="1246" dy="676" grid="1" gridSize="10" guides="1" tooltips="1" connect="1" arrows="1" fold="1" page="1" pageScale="1" pageWidth="827" pageHeight="1169" math="0" shadow="0">
      <root>
        <mxCell id="0" />
        <mxCell id="1" parent="0" />
        <mxCell id="oBnp12DrFAPah0IkXp49-35" style="edgeStyle=orthogonalEdgeStyle;rounded=0;orthogonalLoop=1;jettySize=auto;html=1;exitX=0.5;exitY=1;exitDx=0;exitDy=0;entryX=0.5;entryY=0;entryDx=0;entryDy=0;" edge="1" parent="1" source="oBnp12DrFAPah0IkXp49-1" target="oBnp12DrFAPah0IkXp49-2">
          <mxGeometry relative="1" as="geometry" />
        </mxCell>
        <mxCell id="oBnp12DrFAPah0IkXp49-1" value="Start" style="ellipse;whiteSpace=wrap;html=1;" vertex="1" parent="1">
          <mxGeometry x="60" y="40" width="120" height="80" as="geometry" />
        </mxCell>
        <mxCell id="oBnp12DrFAPah0IkXp49-16" style="edgeStyle=orthogonalEdgeStyle;rounded=0;orthogonalLoop=1;jettySize=auto;html=1;exitX=0.5;exitY=1;exitDx=0;exitDy=0;entryX=0.5;entryY=0;entryDx=0;entryDy=0;" edge="1" parent="1" source="oBnp12DrFAPah0IkXp49-2" target="oBnp12DrFAPah0IkXp49-3">
          <mxGeometry relative="1" as="geometry" />
        </mxCell>
        <mxCell id="oBnp12DrFAPah0IkXp49-2" value="Nhập n1, n2, op" style="shape=parallelogram;perimeter=parallelogramPerimeter;whiteSpace=wrap;html=1;fixedSize=1;" vertex="1" parent="1">
          <mxGeometry x="60" y="160" width="120" height="60" as="geometry" />
        </mxCell>
        <mxCell id="oBnp12DrFAPah0IkXp49-17" style="edgeStyle=orthogonalEdgeStyle;rounded=0;orthogonalLoop=1;jettySize=auto;html=1;exitX=0.5;exitY=1;exitDx=0;exitDy=0;" edge="1" parent="1" source="oBnp12DrFAPah0IkXp49-3" target="oBnp12DrFAPah0IkXp49-4">
          <mxGeometry relative="1" as="geometry" />
        </mxCell>
        <mxCell id="oBnp12DrFAPah0IkXp49-19" style="edgeStyle=orthogonalEdgeStyle;rounded=0;orthogonalLoop=1;jettySize=auto;html=1;exitX=1;exitY=0.5;exitDx=0;exitDy=0;entryX=0;entryY=0.5;entryDx=0;entryDy=0;" edge="1" parent="1" source="oBnp12DrFAPah0IkXp49-3" target="oBnp12DrFAPah0IkXp49-5">
          <mxGeometry relative="1" as="geometry" />
        </mxCell>
        <mxCell id="oBnp12DrFAPah0IkXp49-3" value="op = &quot;+&quot;?" style="rhombus;whiteSpace=wrap;html=1;" vertex="1" parent="1">
          <mxGeometry x="80" y="260" width="80" height="80" as="geometry" />
        </mxCell>
        <mxCell id="oBnp12DrFAPah0IkXp49-18" style="edgeStyle=orthogonalEdgeStyle;rounded=0;orthogonalLoop=1;jettySize=auto;html=1;exitX=0.5;exitY=1;exitDx=0;exitDy=0;entryX=0.5;entryY=0;entryDx=0;entryDy=0;" edge="1" parent="1" source="oBnp12DrFAPah0IkXp49-4" target="oBnp12DrFAPah0IkXp49-15">
          <mxGeometry relative="1" as="geometry" />
        </mxCell>
        <mxCell id="oBnp12DrFAPah0IkXp49-4" value="n1 + n2" style="rounded=0;whiteSpace=wrap;html=1;" vertex="1" parent="1">
          <mxGeometry x="60" y="380" width="120" height="60" as="geometry" />
        </mxCell>
        <mxCell id="oBnp12DrFAPah0IkXp49-20" style="edgeStyle=orthogonalEdgeStyle;rounded=0;orthogonalLoop=1;jettySize=auto;html=1;exitX=0.5;exitY=1;exitDx=0;exitDy=0;entryX=0.5;entryY=0;entryDx=0;entryDy=0;" edge="1" parent="1" source="oBnp12DrFAPah0IkXp49-5" target="oBnp12DrFAPah0IkXp49-8">
          <mxGeometry relative="1" as="geometry" />
        </mxCell>
        <mxCell id="oBnp12DrFAPah0IkXp49-22" style="edgeStyle=orthogonalEdgeStyle;rounded=0;orthogonalLoop=1;jettySize=auto;html=1;exitX=1;exitY=0.5;exitDx=0;exitDy=0;entryX=0;entryY=0.5;entryDx=0;entryDy=0;" edge="1" parent="1" source="oBnp12DrFAPah0IkXp49-5" target="oBnp12DrFAPah0IkXp49-6">
          <mxGeometry relative="1" as="geometry" />
        </mxCell>
        <mxCell id="oBnp12DrFAPah0IkXp49-5" value="op = &quot;-&quot;?" style="rhombus;whiteSpace=wrap;html=1;" vertex="1" parent="1">
          <mxGeometry x="226" y="260" width="80" height="80" as="geometry" />
        </mxCell>
        <mxCell id="oBnp12DrFAPah0IkXp49-23" style="edgeStyle=orthogonalEdgeStyle;rounded=0;orthogonalLoop=1;jettySize=auto;html=1;exitX=0.5;exitY=1;exitDx=0;exitDy=0;entryX=0.5;entryY=0;entryDx=0;entryDy=0;" edge="1" parent="1" source="oBnp12DrFAPah0IkXp49-6" target="oBnp12DrFAPah0IkXp49-9">
          <mxGeometry relative="1" as="geometry" />
        </mxCell>
        <mxCell id="oBnp12DrFAPah0IkXp49-25" style="edgeStyle=orthogonalEdgeStyle;rounded=0;orthogonalLoop=1;jettySize=auto;html=1;exitX=1;exitY=0.5;exitDx=0;exitDy=0;entryX=0;entryY=0.5;entryDx=0;entryDy=0;" edge="1" parent="1" source="oBnp12DrFAPah0IkXp49-6" target="oBnp12DrFAPah0IkXp49-7">
          <mxGeometry relative="1" as="geometry" />
        </mxCell>
        <mxCell id="oBnp12DrFAPah0IkXp49-6" value="op = &quot;*&quot;?" style="rhombus;whiteSpace=wrap;html=1;" vertex="1" parent="1">
          <mxGeometry x="376" y="260" width="80" height="80" as="geometry" />
        </mxCell>
        <mxCell id="oBnp12DrFAPah0IkXp49-26" style="edgeStyle=orthogonalEdgeStyle;rounded=0;orthogonalLoop=1;jettySize=auto;html=1;exitX=0.5;exitY=1;exitDx=0;exitDy=0;entryX=0.5;entryY=0;entryDx=0;entryDy=0;" edge="1" parent="1" source="oBnp12DrFAPah0IkXp49-7" target="oBnp12DrFAPah0IkXp49-12">
          <mxGeometry relative="1" as="geometry" />
        </mxCell>
        <mxCell id="oBnp12DrFAPah0IkXp49-30" style="edgeStyle=orthogonalEdgeStyle;rounded=0;orthogonalLoop=1;jettySize=auto;html=1;exitX=1;exitY=0.5;exitDx=0;exitDy=0;" edge="1" parent="1" source="oBnp12DrFAPah0IkXp49-7">
          <mxGeometry relative="1" as="geometry">
            <mxPoint x="670" y="300" as="targetPoint" />
          </mxGeometry>
        </mxCell>
        <mxCell id="oBnp12DrFAPah0IkXp49-7" value="op = &quot;/&quot;?" style="rhombus;whiteSpace=wrap;html=1;" vertex="1" parent="1">
          <mxGeometry x="520" y="260" width="80" height="80" as="geometry" />
        </mxCell>
        <mxCell id="oBnp12DrFAPah0IkXp49-21" style="edgeStyle=orthogonalEdgeStyle;rounded=0;orthogonalLoop=1;jettySize=auto;html=1;exitX=0.5;exitY=1;exitDx=0;exitDy=0;entryX=0.5;entryY=0;entryDx=0;entryDy=0;" edge="1" parent="1" source="oBnp12DrFAPah0IkXp49-8" target="oBnp12DrFAPah0IkXp49-15">
          <mxGeometry relative="1" as="geometry" />
        </mxCell>
        <mxCell id="oBnp12DrFAPah0IkXp49-8" value="n1 - n2" style="rounded=0;whiteSpace=wrap;html=1;" vertex="1" parent="1">
          <mxGeometry x="206" y="380" width="120" height="60" as="geometry" />
        </mxCell>
        <mxCell id="oBnp12DrFAPah0IkXp49-24" style="edgeStyle=orthogonalEdgeStyle;rounded=0;orthogonalLoop=1;jettySize=auto;html=1;exitX=0.5;exitY=1;exitDx=0;exitDy=0;entryX=0.5;entryY=0;entryDx=0;entryDy=0;" edge="1" parent="1" source="oBnp12DrFAPah0IkXp49-9" target="oBnp12DrFAPah0IkXp49-15">
          <mxGeometry relative="1" as="geometry" />
        </mxCell>
        <mxCell id="oBnp12DrFAPah0IkXp49-9" value="n1 * n2" style="rounded=0;whiteSpace=wrap;html=1;" vertex="1" parent="1">
          <mxGeometry x="356" y="380" width="120" height="60" as="geometry" />
        </mxCell>
        <mxCell id="oBnp12DrFAPah0IkXp49-27" style="edgeStyle=orthogonalEdgeStyle;rounded=0;orthogonalLoop=1;jettySize=auto;html=1;exitX=0.5;exitY=1;exitDx=0;exitDy=0;entryX=0.5;entryY=0;entryDx=0;entryDy=0;" edge="1" parent="1" source="oBnp12DrFAPah0IkXp49-12" target="oBnp12DrFAPah0IkXp49-13">
          <mxGeometry relative="1" as="geometry" />
        </mxCell>
        <mxCell id="oBnp12DrFAPah0IkXp49-28" style="edgeStyle=orthogonalEdgeStyle;rounded=0;orthogonalLoop=1;jettySize=auto;html=1;exitX=1;exitY=0.5;exitDx=0;exitDy=0;entryX=0;entryY=0.5;entryDx=0;entryDy=0;" edge="1" parent="1" source="oBnp12DrFAPah0IkXp49-12" target="oBnp12DrFAPah0IkXp49-14">
          <mxGeometry relative="1" as="geometry" />
        </mxCell>
        <mxCell id="oBnp12DrFAPah0IkXp49-12" value="n2 = 0?" style="rhombus;whiteSpace=wrap;html=1;" vertex="1" parent="1">
          <mxGeometry x="520" y="370" width="80" height="80" as="geometry" />
        </mxCell>
        <mxCell id="oBnp12DrFAPah0IkXp49-36" style="edgeStyle=orthogonalEdgeStyle;rounded=0;orthogonalLoop=1;jettySize=auto;html=1;exitX=0.5;exitY=1;exitDx=0;exitDy=0;entryX=0.5;entryY=0;entryDx=0;entryDy=0;" edge="1" parent="1" source="oBnp12DrFAPah0IkXp49-13" target="oBnp12DrFAPah0IkXp49-32">
          <mxGeometry relative="1" as="geometry" />
        </mxCell>
        <mxCell id="oBnp12DrFAPah0IkXp49-13" value="Lỗi chia 0" style="shape=parallelogram;perimeter=parallelogramPerimeter;whiteSpace=wrap;html=1;fixedSize=1;" vertex="1" parent="1">
          <mxGeometry x="500" y="510" width="120" height="60" as="geometry" />
        </mxCell>
        <mxCell id="oBnp12DrFAPah0IkXp49-29" style="edgeStyle=orthogonalEdgeStyle;rounded=0;orthogonalLoop=1;jettySize=auto;html=1;exitX=0.5;exitY=1;exitDx=0;exitDy=0;entryX=0.5;entryY=0;entryDx=0;entryDy=0;" edge="1" parent="1" source="oBnp12DrFAPah0IkXp49-14" target="oBnp12DrFAPah0IkXp49-15">
          <mxGeometry relative="1" as="geometry" />
        </mxCell>
        <mxCell id="oBnp12DrFAPah0IkXp49-14" value="n1 / n2" style="rounded=0;whiteSpace=wrap;html=1;" vertex="1" parent="1">
          <mxGeometry x="650" y="380" width="120" height="60" as="geometry" />
        </mxCell>
        <mxCell id="oBnp12DrFAPah0IkXp49-33" style="edgeStyle=orthogonalEdgeStyle;rounded=0;orthogonalLoop=1;jettySize=auto;html=1;exitX=0.5;exitY=1;exitDx=0;exitDy=0;entryX=0.5;entryY=0;entryDx=0;entryDy=0;" edge="1" parent="1" source="oBnp12DrFAPah0IkXp49-15" target="oBnp12DrFAPah0IkXp49-32">
          <mxGeometry relative="1" as="geometry" />
        </mxCell>
        <mxCell id="oBnp12DrFAPah0IkXp49-15" value="Kết quả" style="shape=parallelogram;perimeter=parallelogramPerimeter;whiteSpace=wrap;html=1;fixedSize=1;" vertex="1" parent="1">
          <mxGeometry x="60" y="510" width="120" height="60" as="geometry" />
        </mxCell>
        <mxCell id="oBnp12DrFAPah0IkXp49-37" style="edgeStyle=orthogonalEdgeStyle;rounded=0;orthogonalLoop=1;jettySize=auto;html=1;exitX=1;exitY=0.5;exitDx=0;exitDy=0;entryX=0.5;entryY=0;entryDx=0;entryDy=0;" edge="1" parent="1" source="oBnp12DrFAPah0IkXp49-31" target="oBnp12DrFAPah0IkXp49-32">
          <mxGeometry relative="1" as="geometry">
            <mxPoint x="920" y="610" as="targetPoint" />
            <Array as="points">
              <mxPoint x="920" y="300" />
              <mxPoint x="920" y="610" />
              <mxPoint x="120" y="610" />
            </Array>
          </mxGeometry>
        </mxCell>
        <mxCell id="oBnp12DrFAPah0IkXp49-31" value="Phép tính không hợp lệ" style="shape=parallelogram;perimeter=parallelogramPerimeter;whiteSpace=wrap;html=1;fixedSize=1;" vertex="1" parent="1">
          <mxGeometry x="660" y="270" width="150" height="60" as="geometry" />
        </mxCell>
        <mxCell id="oBnp12DrFAPah0IkXp49-32" value="End" style="ellipse;whiteSpace=wrap;html=1;" vertex="1" parent="1">
          <mxGeometry x="60" y="640" width="120" height="80" as="geometry" />
        </mxCell>
        <mxCell id="oBnp12DrFAPah0IkXp49-38" value="True" style="text;html=1;align=center;verticalAlign=middle;whiteSpace=wrap;rounded=0;" vertex="1" parent="1">
          <mxGeometry x="120" y="340" width="60" height="30" as="geometry" />
        </mxCell>
        <mxCell id="oBnp12DrFAPah0IkXp49-39" value="True" style="text;html=1;align=center;verticalAlign=middle;whiteSpace=wrap;rounded=0;" vertex="1" parent="1">
          <mxGeometry x="266" y="340" width="60" height="30" as="geometry" />
        </mxCell>
        <mxCell id="oBnp12DrFAPah0IkXp49-40" value="True" style="text;html=1;align=center;verticalAlign=middle;whiteSpace=wrap;rounded=0;" vertex="1" parent="1">
          <mxGeometry x="416" y="340" width="60" height="30" as="geometry" />
        </mxCell>
        <mxCell id="oBnp12DrFAPah0IkXp49-41" value="True" style="text;html=1;align=center;verticalAlign=middle;whiteSpace=wrap;rounded=0;" vertex="1" parent="1">
          <mxGeometry x="560" y="340" width="60" height="30" as="geometry" />
        </mxCell>
        <mxCell id="oBnp12DrFAPah0IkXp49-42" value="True" style="text;html=1;align=center;verticalAlign=middle;whiteSpace=wrap;rounded=0;" vertex="1" parent="1">
          <mxGeometry x="550" y="480" width="60" height="30" as="geometry" />
        </mxCell>
        <mxCell id="oBnp12DrFAPah0IkXp49-43" value="False" style="text;html=1;align=center;verticalAlign=middle;whiteSpace=wrap;rounded=0;" vertex="1" parent="1">
          <mxGeometry x="160" y="270" width="60" height="30" as="geometry" />
        </mxCell>
        <mxCell id="oBnp12DrFAPah0IkXp49-44" value="False" style="text;html=1;align=center;verticalAlign=middle;whiteSpace=wrap;rounded=0;" vertex="1" parent="1">
          <mxGeometry x="310" y="270" width="60" height="30" as="geometry" />
        </mxCell>
        <mxCell id="oBnp12DrFAPah0IkXp49-45" value="False" style="text;html=1;align=center;verticalAlign=middle;whiteSpace=wrap;rounded=0;" vertex="1" parent="1">
          <mxGeometry x="456" y="270" width="60" height="30" as="geometry" />
        </mxCell>
        <mxCell id="oBnp12DrFAPah0IkXp49-46" value="False" style="text;html=1;align=center;verticalAlign=middle;whiteSpace=wrap;rounded=0;" vertex="1" parent="1">
          <mxGeometry x="600" y="270" width="60" height="30" as="geometry" />
        </mxCell>
        <mxCell id="oBnp12DrFAPah0IkXp49-47" value="False" style="text;html=1;align=center;verticalAlign=middle;whiteSpace=wrap;rounded=0;" vertex="1" parent="1">
          <mxGeometry x="590" y="390" width="60" height="30" as="geometry" />
        </mxCell>
      </root>
    </mxGraphModel>
  </diagram>
</mxfile>
